<svg xmlns="http://www.w3.org/2000/svg" viewBox="0 0 10 10" width="32" height="32" shape-rendering="crispEdges">
  <rect width="10" height="10" fill="#0a0a0a"/>
  <rect x="4" y="0" width="1" height="1" fill="#ffd700"/>
  <rect x="5" y="0" width="1" height="1" fill="#ffd700"/>
  <rect x="6" y="0" width="1" height="1" fill="#ffd700"/>
  <rect x="3" y="1" width="1" height="1" fill="#ffd700"/>
  <rect x="4" y="1" width="1" height="1" fill="#ffd700"/>
  <rect x="5" y="1" width="1" height="1" fill="#ffd700"/>
  <rect x="6" y="1" width="1" height="1" fill="#ffd700"/>
  <rect x="7" y="1" width="1" height="1" fill="#ffd700"/>
  <rect x="3" y="2" width="1" height="1" fill="#ffd700"/>
  <rect x="4" y="2" width="1" height="1" fill="#ffd700"/>
  <rect x="5" y="2" width="1" height="1" fill="#0a0a0a"/>
  <rect x="6" y="2" width="1" height="1" fill="#ffd700"/>
  <rect x="7" y="2" width="1" height="1" fill="#ffd700"/>
  <rect x="3" y="3" width="1" height="1" fill="#ffd700"/>
  <rect x="4" y="3" width="1" height="1" fill="#ffd700"/>
  <rect x="5" y="3" width="1" height="1" fill="#ffd700"/>
  <rect x="6" y="3" width="1" height="1" fill="#ffd700"/>
  <rect x="7" y="3" width="1" height="1" fill="#ffd700"/>
  <rect x="8" y="3" width="1" height="1" fill="#ff8c00"/>
  <rect x="9" y="3" width="1" height="1" fill="#ff8c00"/>
  <rect x="3" y="4" width="1" height="1" fill="#ffd700"/>
  <rect x="4" y="4" width="1" height="1" fill="#ffd700"/>
  <rect x="5" y="4" width="1" height="1" fill="#ffd700"/>
  <rect x="6" y="4" width="1" height="1" fill="#ffd700"/>
  <rect x="0" y="5" width="1" height="1" fill="#ffd700"/>
  <rect x="1" y="5" width="1" height="1" fill="#ffd700"/>
  <rect x="2" y="5" width="1" height="1" fill="#ffd700"/>
  <rect x="3" y="5" width="1" height="1" fill="#ffd700"/>
  <rect x="4" y="5" width="1" height="1" fill="#ffd700"/>
  <rect x="5" y="5" width="1" height="1" fill="#ffd700"/>
  <rect x="6" y="5" width="1" height="1" fill="#ffd700"/>
  <rect x="7" y="5" width="1" height="1" fill="#ffd700"/>
  <rect x="0" y="6" width="1" height="1" fill="#ffd700"/>
  <rect x="1" y="6" width="1" height="1" fill="#ffd700"/>
  <rect x="2" y="6" width="1" height="1" fill="#ffc800"/>
  <rect x="3" y="6" width="1" height="1" fill="#ffc800"/>
  <rect x="4" y="6" width="1" height="1" fill="#ffc800"/>
  <rect x="5" y="6" width="1" height="1" fill="#ffc800"/>
  <rect x="6" y="6" width="1" height="1" fill="#ffd700"/>
  <rect x="7" y="6" width="1" height="1" fill="#ffd700"/>
  <rect x="8" y="6" width="1" height="1" fill="#ffd700"/>
  <rect x="0" y="7" width="1" height="1" fill="#ffd700"/>
  <rect x="1" y="7" width="1" height="1" fill="#ffc800"/>
  <rect x="2" y="7" width="1" height="1" fill="#ffc800"/>
  <rect x="3" y="7" width="1" height="1" fill="#ffc800"/>
  <rect x="4" y="7" width="1" height="1" fill="#ffc800"/>
  <rect x="5" y="7" width="1" height="1" fill="#ffc800"/>
  <rect x="6" y="7" width="1" height="1" fill="#ffc800"/>
  <rect x="7" y="7" width="1" height="1" fill="#ffd700"/>
  <rect x="8" y="7" width="1" height="1" fill="#ffd700"/>
  <rect x="1" y="8" width="1" height="1" fill="#ffd700"/>
  <rect x="2" y="8" width="1" height="1" fill="#ffd700"/>
  <rect x="3" y="8" width="1" height="1" fill="#ffd700"/>
  <rect x="4" y="8" width="1" height="1" fill="#ffd700"/>
  <rect x="5" y="8" width="1" height="1" fill="#ffd700"/>
  <rect x="6" y="8" width="1" height="1" fill="#ffd700"/>
  <rect x="7" y="8" width="1" height="1" fill="#ffd700"/>
  <rect x="2" y="9" width="1" height="1" fill="#ff8c00"/>
  <rect x="3" y="9" width="1" height="1" fill="#ff8c00"/>
  <rect x="5" y="9" width="1" height="1" fill="#ff8c00"/>
  <rect x="6" y="9" width="1" height="1" fill="#ff8c00"/>
</svg>
